# This file uses centimeters as units for non-parametric coordinates.

mtllib bar0.mtl
g default
v 4.807470 0.206292 5.459134
v 4.807470 0.250757 4.460119
v -4.807470 0.250757 4.460119
v -4.807470 0.206292 5.459134
v 4.807470 0.231116 5.460239
v 4.807470 0.275580 4.461225
v -4.807470 0.275580 4.461225
v -4.807470 0.231116 5.460239
vt 0.896578 0.237362
vt 0.998562 0.255538
vt 0.998110 0.258072
vt 0.896126 0.239896
vt 0.896126 0.282107
vt 0.998110 0.263931
vt 0.998562 0.266465
vt 0.896578 0.284641
vt 0.998562 0.003381
vt 0.998562 0.105365
vt 0.002546 0.105365
vt 0.002546 0.003381
vt 0.998562 0.111604
vt 0.998562 0.213588
vt 0.002546 0.213588
vt 0.002546 0.111604
vt 0.998562 0.111677
vt 0.002546 0.111677
vt 0.002546 0.109143
vt 0.998562 0.109143
vt 0.998562 0.228506
vt 0.998562 0.231040
vt 0.002546 0.231040
vt 0.002546 0.228506
vn 1.000000 -0.000009 0.000001
vn 1.000000 -0.000009 0.000001
vn 1.000000 -0.000009 0.000001
vn 1.000000 -0.000009 0.000001
vn -1.000000 -0.000006 0.000001
vn -1.000000 -0.000006 0.000001
vn -1.000000 -0.000006 0.000001
vn -1.000000 -0.000006 0.000001
vn 0.000000 -0.999011 -0.044464
vn 0.000000 -0.999011 -0.044464
vn 0.000000 -0.999011 -0.044464
vn 0.000000 -0.999011 -0.044464
vn 0.000000 0.999011 0.044464
vn 0.000000 0.999011 0.044464
vn 0.000000 0.999011 0.044464
vn 0.000000 0.999011 0.044464
vn 0.000000 -0.044481 0.999010
vn 0.000000 -0.044481 0.999010
vn 0.000000 -0.044481 0.999010
vn 0.000000 -0.044481 0.999010
vn 0.000000 0.044500 -0.999009
vn 0.000000 0.044500 -0.999009
vn 0.000000 0.044500 -0.999009
vn 0.000000 0.044500 -0.999009
s off
g Mesh2
usemtl lambert2SG
f 1/1/1 2/2/2 6/3/3 5/4/4
f 3/5/5 4/6/6 8/7/7 7/8/8
f 2/9/9 1/10/10 4/11/11 3/12/12
f 5/13/13 6/14/14 7/15/15 8/16/16
f 5/17/17 8/18/18 4/19/19 1/20/20
f 6/21/21 2/22/22 3/23/23 7/24/24
