# This file uses centimeters as units for non-parametric coordinates.

mtllib bar1.mtl
g default
v 4.807470 0.284840 4.066700
v 4.807470 0.460300 3.082210
v -4.807470 0.460300 3.082210
v -4.807470 0.284840 4.066700
v 4.807470 0.309302 4.071060
v 4.807470 0.484762 3.086570
v -4.807470 0.484762 3.086570
v -4.807470 0.309302 4.071060
vn 1.000000 -0.000009 0.000000
vn 1.000000 -0.000009 0.000000
vn 1.000000 -0.000009 0.000000
vn 1.000000 -0.000009 0.000000
vn -1.000000 0.000006 0.000000
vn -1.000000 0.000006 0.000000
vn -1.000000 0.000006 0.000000
vn -1.000000 0.000006 0.000000
vn 0.000000 -0.984487 -0.175460
vn 0.000000 -0.984487 -0.175460
vn 0.000000 -0.984487 -0.175460
vn 0.000000 -0.984487 -0.175460
vn 0.000000 0.984487 0.175459
vn 0.000000 0.984487 0.175459
vn 0.000000 0.984487 0.175459
vn 0.000000 0.984487 0.175459
vn 0.000000 -0.175476 0.984484
vn 0.000000 -0.175476 0.984484
vn 0.000000 -0.175476 0.984484
vn 0.000000 -0.175476 0.984484
vn 0.000000 0.175458 -0.984487
vn 0.000000 0.175458 -0.984487
vn 0.000000 0.175458 -0.984487
vn 0.000000 0.175458 -0.984487
s off
g plate4:Mesh
usemtl initialShadingGroup
f 1//1 2//2 6//3 5//4
f 3//5 4//6 8//7 7//8
f 2//9 1//10 4//11 3//12
f 5//13 6//14 7//15 8//16
f 5//17 8//18 4//19 1//20
f 6//21 2//22 3//23 7//24
