# This file uses centimeters as units for non-parametric coordinates.

mtllib bar2.mtl
g default
v 4.807470 0.550030 2.700460
v 4.807470 0.847210 1.745640
v -4.807470 0.847210 1.745640
v -4.807470 0.550030 2.700460
v 4.807470 0.573755 2.707844
v 4.807470 0.870935 1.753024
v -4.807470 0.870935 1.753024
v -4.807470 0.573755 2.707844
vn 1.000000 0.000009 0.000000
vn 1.000000 0.000009 0.000000
vn 1.000000 0.000009 0.000000
vn 1.000000 0.000009 0.000000
vn -1.000000 -0.000009 0.000000
vn -1.000000 -0.000009 0.000000
vn -1.000000 -0.000009 0.000000
vn -1.000000 -0.000009 0.000000
vn 0.000000 -0.954821 -0.297180
vn 0.000000 -0.954821 -0.297180
vn 0.000000 -0.954821 -0.297180
vn 0.000000 -0.954821 -0.297180
vn 0.000000 0.954821 0.297180
vn 0.000000 0.954821 0.297180
vn 0.000000 0.954821 0.297180
vn 0.000000 0.954821 0.297180
vn 0.000000 -0.297183 0.954821
vn 0.000000 -0.297183 0.954821
vn 0.000000 -0.297183 0.954821
vn 0.000000 -0.297183 0.954821
vn 0.000000 0.297184 -0.954820
vn 0.000000 0.297184 -0.954820
vn 0.000000 0.297184 -0.954820
vn 0.000000 0.297184 -0.954820
s off
g plate3:Mesh
usemtl initialShadingGroup
f 1//1 2//2 6//3 5//4
f 3//5 4//6 8//7 7//8
f 2//9 1//10 4//11 3//12
f 5//13 6//14 7//15 8//16
f 5//17 8//18 4//19 1//20
f 6//21 2//22 3//23 7//24
