# This file uses centimeters as units for non-parametric coordinates.

mtllib bar3.mtl
g default
v 4.807470 0.992740 1.369720
v 4.807470 1.442430 0.476536
v -4.807470 1.442430 0.476536
v -4.807470 0.992740 1.369720
v 4.807470 1.014934 1.380894
v 4.807470 1.464623 0.487710
v -4.807470 1.464623 0.487710
v -4.807470 1.014934 1.380894
vn 1.000000 0.000009 0.000000
vn 1.000000 0.000009 0.000000
vn 1.000000 0.000009 0.000000
vn 1.000000 0.000009 0.000000
vn -1.000000 -0.000009 0.000000
vn -1.000000 -0.000009 0.000000
vn -1.000000 -0.000009 0.000000
vn -1.000000 -0.000009 0.000000
vn 0.000000 -0.893185 -0.449690
vn 0.000000 -0.893185 -0.449690
vn 0.000000 -0.893185 -0.449690
vn 0.000000 -0.893185 -0.449690
vn 0.000000 0.893185 0.449690
vn 0.000000 0.893185 0.449690
vn 0.000000 0.893185 0.449690
vn 0.000000 0.893185 0.449690
vn 0.000000 -0.449691 0.893184
vn 0.000000 -0.449691 0.893184
vn 0.000000 -0.449691 0.893184
vn 0.000000 -0.449691 0.893184
vn 0.000000 0.449691 -0.893184
vn 0.000000 0.449691 -0.893184
vn 0.000000 0.449691 -0.893184
vn 0.000000 0.449691 -0.893184
s off
g plate2:Mesh
usemtl initialShadingGroup
f 1//1 2//2 6//3 5//4
f 3//5 4//6 8//7 7//8
f 2//9 1//10 4//11 3//12
f 5//13 6//14 7//15 8//16
f 5//17 8//18 4//19 1//20
f 6//21 2//22 3//23 7//24
