# This file uses centimeters as units for non-parametric coordinates.

mtllib bar4.mtl
g default
v 4.807470 1.574480 0.256090
v 4.807470 2.197240 -0.526323
v -4.807470 2.197240 -0.526323
v -4.807470 1.574480 0.256090
v 4.807470 1.593921 0.271564
v 4.807470 2.216681 -0.510849
v -4.807470 2.216681 -0.510849
v -4.807470 1.593921 0.271564
vn 1.000000 0.000002 0.000000
vn 1.000000 0.000002 0.000000
vn 1.000000 0.000002 0.000000
vn 1.000000 0.000002 0.000000
vn -1.000000 -0.000002 0.000000
vn -1.000000 -0.000002 0.000000
vn -1.000000 -0.000002 0.000000
vn -1.000000 -0.000002 0.000000
vn 0.000000 -0.782413 -0.622760
vn 0.000000 -0.782413 -0.622760
vn 0.000000 -0.782413 -0.622760
vn 0.000000 -0.782413 -0.622760
vn 0.000000 0.782413 0.622760
vn 0.000000 0.782413 0.622760
vn 0.000000 0.782413 0.622760
vn 0.000000 0.782413 0.622760
vn 0.000000 -0.622760 0.782413
vn 0.000000 -0.622760 0.782413
vn 0.000000 -0.622760 0.782413
vn 0.000000 -0.622760 0.782413
vn 0.000000 0.622758 -0.782415
vn 0.000000 0.622758 -0.782415
vn 0.000000 0.622758 -0.782415
vn 0.000000 0.622758 -0.782415
s off
g plate1:Mesh
usemtl initialShadingGroup
f 1//1 2//2 6//3 5//4
f 3//5 4//6 8//7 7//8
f 2//9 1//10 4//11 3//12
f 5//13 6//14 7//15 8//16
f 5//17 8//18 4//19 1//20
f 6//21 2//22 3//23 7//24
